<mxfile host="app.diagrams.net" modified="2023-06-26T22:12:40.575Z" agent="Mozilla/5.0 (Macintosh; Intel Mac OS X 10_15_7) AppleWebKit/537.36 (KHTML, like Gecko) Chrome/114.0.0.0 Safari/537.36" etag="ao1xukmb6khLbRmAT5c6" version="21.5.0" type="github">
  <diagram name="Page-1" id="fktcLNoh3aOtd3US9ePM">
    <mxGraphModel dx="2954" dy="1073" grid="1" gridSize="1" guides="1" tooltips="1" connect="1" arrows="1" fold="1" page="1" pageScale="1" pageWidth="1654" pageHeight="2336" math="0" shadow="0">
      <root>
        <mxCell id="0" />
        <mxCell id="1" parent="0" />
        <mxCell id="u46Li2yzT0eoCgccH4o8-35" value="&lt;font style=&quot;font-size: 36px;&quot;&gt;MINTS sensing systems&lt;/font&gt;" style="swimlane;whiteSpace=wrap;html=1;align=left;startSize=44;" parent="1" vertex="1">
          <mxGeometry x="140" y="72" width="1298" height="532" as="geometry" />
        </mxCell>
        <mxCell id="rWycjQ3bLgIySJay0Uhn-28" value="&lt;font style=&quot;font-size: 18px;&quot;&gt;LoRaWAN sensing systems &lt;br&gt;(tertiary nodes)&lt;/font&gt;" style="text;html=1;strokeColor=default;fillColor=none;align=left;verticalAlign=middle;whiteSpace=wrap;rounded=0;" parent="u46Li2yzT0eoCgccH4o8-35" vertex="1">
          <mxGeometry x="1013" y="57" width="239" height="61" as="geometry" />
        </mxCell>
        <mxCell id="rWycjQ3bLgIySJay0Uhn-22" value="&lt;div style=&quot;text-align: left;&quot;&gt;&lt;span style=&quot;background-color: initial;&quot;&gt;&lt;font style=&quot;font-size: 18px;&quot;&gt;Sole LoRaWAN gateways&lt;/font&gt;&lt;/span&gt;&lt;/div&gt;" style="text;html=1;strokeColor=default;fillColor=none;align=center;verticalAlign=middle;whiteSpace=wrap;rounded=0;" parent="u46Li2yzT0eoCgccH4o8-35" vertex="1">
          <mxGeometry x="532" y="89" width="276" height="62" as="geometry" />
        </mxCell>
        <mxCell id="u46Li2yzT0eoCgccH4o8-88" value="&lt;div style=&quot;text-align: left;&quot;&gt;&lt;span style=&quot;background-color: initial;&quot;&gt;&lt;font style=&quot;font-size: 18px;&quot;&gt;Sole LoRaWAN gateways&lt;/font&gt;&lt;/span&gt;&lt;/div&gt;" style="text;html=1;strokeColor=default;fillColor=none;align=center;verticalAlign=middle;whiteSpace=wrap;rounded=0;" parent="u46Li2yzT0eoCgccH4o8-35" vertex="1">
          <mxGeometry x="532" y="184" width="271" height="60" as="geometry" />
        </mxCell>
        <mxCell id="u46Li2yzT0eoCgccH4o8-89" value="&lt;div style=&quot;text-align: left;&quot;&gt;&lt;span style=&quot;background-color: initial;&quot;&gt;&lt;font style=&quot;font-size: 18px;&quot;&gt;Sole LoRaWAN gateways&lt;/font&gt;&lt;/span&gt;&lt;/div&gt;&lt;font style=&quot;font-size: 14px;&quot;&gt;&lt;div style=&quot;text-align: left;&quot;&gt;&lt;span style=&quot;background-color: initial;&quot;&gt;Eg: Located at the roof top of NSERL&lt;/span&gt;&lt;/div&gt;&lt;/font&gt;" style="text;html=1;strokeColor=default;fillColor=none;align=center;verticalAlign=middle;whiteSpace=wrap;rounded=0;" parent="u46Li2yzT0eoCgccH4o8-35" vertex="1">
          <mxGeometry x="529" y="313.08" width="272" height="62.92" as="geometry" />
        </mxCell>
        <mxCell id="u46Li2yzT0eoCgccH4o8-91" value="&lt;font style=&quot;font-size: 18px;&quot;&gt;LoRaWAN sensing systems &lt;br&gt;(tertiary nodes)&lt;/font&gt;" style="text;html=1;strokeColor=default;fillColor=none;align=left;verticalAlign=middle;whiteSpace=wrap;rounded=0;" parent="u46Li2yzT0eoCgccH4o8-35" vertex="1">
          <mxGeometry x="1013" y="139.08" width="241" height="61" as="geometry" />
        </mxCell>
        <mxCell id="u46Li2yzT0eoCgccH4o8-90" value="&lt;font style=&quot;font-size: 18px;&quot;&gt;LoRaWAN sensing systems &lt;br&gt;(tertiary nodes)&lt;/font&gt;" style="text;html=1;strokeColor=default;fillColor=none;align=left;verticalAlign=middle;whiteSpace=wrap;rounded=0;" parent="u46Li2yzT0eoCgccH4o8-35" vertex="1">
          <mxGeometry x="1013" y="219.08" width="240" height="61" as="geometry" />
        </mxCell>
        <mxCell id="u46Li2yzT0eoCgccH4o8-94" value="&lt;font style=&quot;font-size: 18px;&quot;&gt;LoRaWAN sensing systems &lt;br&gt;(tertiary nodes)&lt;/font&gt;" style="text;html=1;strokeColor=default;fillColor=none;align=left;verticalAlign=middle;whiteSpace=wrap;rounded=0;" parent="u46Li2yzT0eoCgccH4o8-35" vertex="1">
          <mxGeometry x="1013" y="298.08" width="239" height="61" as="geometry" />
        </mxCell>
        <mxCell id="u46Li2yzT0eoCgccH4o8-95" value="&lt;font style=&quot;font-size: 18px;&quot;&gt;LoRaWAN sensing systems &lt;br&gt;(tertiary nodes)&lt;/font&gt;" style="text;html=1;strokeColor=default;fillColor=none;align=left;verticalAlign=middle;whiteSpace=wrap;rounded=0;" parent="u46Li2yzT0eoCgccH4o8-35" vertex="1">
          <mxGeometry x="1013" y="380.16" width="241" height="61" as="geometry" />
        </mxCell>
        <mxCell id="u46Li2yzT0eoCgccH4o8-96" value="&lt;font style=&quot;font-size: 18px;&quot;&gt;LoRaWAN sensing systems &lt;br&gt;(tertiary nodes)&lt;/font&gt;" style="text;html=1;strokeColor=default;fillColor=none;align=left;verticalAlign=middle;whiteSpace=wrap;rounded=0;" parent="u46Li2yzT0eoCgccH4o8-35" vertex="1">
          <mxGeometry x="1013" y="460.15999999999997" width="240" height="62.92" as="geometry" />
        </mxCell>
        <mxCell id="u46Li2yzT0eoCgccH4o8-85" value="&lt;font style=&quot;font-size: 24px;&quot;&gt;Wired/cellular network sensing systems (mothership nodes)&lt;/font&gt;" style="text;html=1;strokeColor=none;fillColor=none;align=left;verticalAlign=middle;whiteSpace=wrap;rounded=0;" parent="u46Li2yzT0eoCgccH4o8-35" vertex="1">
          <mxGeometry x="25.998898305084747" y="392.00155079718206" width="343.14406779661016" height="34.11247450871338" as="geometry" />
        </mxCell>
        <mxCell id="u46Li2yzT0eoCgccH4o8-87" value="" style="rounded=0;whiteSpace=wrap;html=1;fillColor=none;" parent="u46Li2yzT0eoCgccH4o8-35" vertex="1">
          <mxGeometry x="20" y="377" width="350" height="134" as="geometry" />
        </mxCell>
        <mxCell id="u46Li2yzT0eoCgccH4o8-86" value="&lt;font style=&quot;&quot;&gt;&lt;font style=&quot;font-size: 18px;&quot;&gt;Embedded LoRaWAN gateways&lt;/font&gt;&lt;br&gt;&lt;font style=&quot;font-size: 14px;&quot;&gt;(Embedded within mothership monitors)&lt;/font&gt;&lt;br&gt;&lt;/font&gt;" style="text;html=1;strokeColor=default;fillColor=none;align=left;verticalAlign=middle;whiteSpace=wrap;rounded=0;" parent="u46Li2yzT0eoCgccH4o8-35" vertex="1">
          <mxGeometry x="29.004576271186437" y="445.99632183908045" width="271.2224576271187" height="58.54597701149426" as="geometry" />
        </mxCell>
        <mxCell id="u46Li2yzT0eoCgccH4o8-108" value="" style="endArrow=classic;html=1;rounded=0;exitX=0;exitY=0.5;exitDx=0;exitDy=0;" parent="u46Li2yzT0eoCgccH4o8-35" source="u46Li2yzT0eoCgccH4o8-87" edge="1">
          <mxGeometry width="50" height="50" relative="1" as="geometry">
            <mxPoint x="12" y="435" as="sourcePoint" />
            <mxPoint x="-29" y="444" as="targetPoint" />
          </mxGeometry>
        </mxCell>
        <mxCell id="u46Li2yzT0eoCgccH4o8-114" value="" style="endArrow=classic;html=1;rounded=0;exitX=1;exitY=0.5;exitDx=0;exitDy=0;" parent="u46Li2yzT0eoCgccH4o8-35" edge="1">
          <mxGeometry width="50" height="50" relative="1" as="geometry">
            <mxPoint x="299" y="311" as="sourcePoint" />
            <mxPoint x="436" y="311" as="targetPoint" />
          </mxGeometry>
        </mxCell>
        <mxCell id="u46Li2yzT0eoCgccH4o8-113" value="" style="endArrow=classic;html=1;rounded=0;exitX=1;exitY=0.5;exitDx=0;exitDy=0;" parent="u46Li2yzT0eoCgccH4o8-35" edge="1">
          <mxGeometry width="50" height="50" relative="1" as="geometry">
            <mxPoint x="300.9970338983053" y="472.26931034482755" as="sourcePoint" />
            <mxPoint x="435" y="472" as="targetPoint" />
          </mxGeometry>
        </mxCell>
        <mxCell id="u46Li2yzT0eoCgccH4o8-115" value="" style="endArrow=classic;html=1;rounded=0;exitX=1;exitY=0.5;exitDx=0;exitDy=0;" parent="u46Li2yzT0eoCgccH4o8-35" edge="1">
          <mxGeometry width="50" height="50" relative="1" as="geometry">
            <mxPoint x="299" y="152" as="sourcePoint" />
            <mxPoint x="437" y="152" as="targetPoint" />
          </mxGeometry>
        </mxCell>
        <mxCell id="u46Li2yzT0eoCgccH4o8-117" value="" style="endArrow=none;html=1;rounded=0;" parent="u46Li2yzT0eoCgccH4o8-35" edge="1">
          <mxGeometry width="50" height="50" relative="1" as="geometry">
            <mxPoint x="436" y="634" as="sourcePoint" />
            <mxPoint x="436" y="101" as="targetPoint" />
          </mxGeometry>
        </mxCell>
        <mxCell id="u46Li2yzT0eoCgccH4o8-118" value="" style="endArrow=classic;html=1;rounded=0;exitX=0;exitY=0.75;exitDx=0;exitDy=0;" parent="u46Li2yzT0eoCgccH4o8-35" source="u46Li2yzT0eoCgccH4o8-89" edge="1">
          <mxGeometry width="50" height="50" relative="1" as="geometry">
            <mxPoint x="528" y="376" as="sourcePoint" />
            <mxPoint x="437" y="361" as="targetPoint" />
          </mxGeometry>
        </mxCell>
        <mxCell id="u46Li2yzT0eoCgccH4o8-121" value="" style="endArrow=classic;html=1;rounded=0;exitX=0;exitY=0.5;exitDx=0;exitDy=0;" parent="u46Li2yzT0eoCgccH4o8-35" source="u46Li2yzT0eoCgccH4o8-88" edge="1">
          <mxGeometry width="50" height="50" relative="1" as="geometry">
            <mxPoint x="518" y="222" as="sourcePoint" />
            <mxPoint x="435" y="214" as="targetPoint" />
          </mxGeometry>
        </mxCell>
        <mxCell id="u46Li2yzT0eoCgccH4o8-122" value="" style="endArrow=classic;html=1;rounded=0;" parent="u46Li2yzT0eoCgccH4o8-35" edge="1">
          <mxGeometry width="50" height="50" relative="1" as="geometry">
            <mxPoint x="531" y="100" as="sourcePoint" />
            <mxPoint x="436" y="100" as="targetPoint" />
          </mxGeometry>
        </mxCell>
        <mxCell id="u46Li2yzT0eoCgccH4o8-123" value="" style="endArrow=classic;html=1;rounded=0;exitX=0;exitY=0.5;exitDx=0;exitDy=0;entryX=1;entryY=0.5;entryDx=0;entryDy=0;" parent="u46Li2yzT0eoCgccH4o8-35" source="u46Li2yzT0eoCgccH4o8-96" target="u46Li2yzT0eoCgccH4o8-89" edge="1">
          <mxGeometry width="50" height="50" relative="1" as="geometry">
            <mxPoint x="653" y="496" as="sourcePoint" />
            <mxPoint x="703" y="446" as="targetPoint" />
          </mxGeometry>
        </mxCell>
        <mxCell id="u46Li2yzT0eoCgccH4o8-154" value="" style="endArrow=classic;html=1;rounded=0;entryX=1;entryY=0.5;entryDx=0;entryDy=0;exitX=0;exitY=0.5;exitDx=0;exitDy=0;" parent="u46Li2yzT0eoCgccH4o8-35" source="u46Li2yzT0eoCgccH4o8-95" target="u46Li2yzT0eoCgccH4o8-88" edge="1">
          <mxGeometry width="50" height="50" relative="1" as="geometry">
            <mxPoint x="983" y="352" as="sourcePoint" />
            <mxPoint x="848" y="280.08" as="targetPoint" />
          </mxGeometry>
        </mxCell>
        <mxCell id="u46Li2yzT0eoCgccH4o8-157" value="" style="endArrow=classic;html=1;rounded=0;entryX=1;entryY=0.5;entryDx=0;entryDy=0;exitX=0;exitY=0.5;exitDx=0;exitDy=0;" parent="u46Li2yzT0eoCgccH4o8-35" source="rWycjQ3bLgIySJay0Uhn-28" target="rWycjQ3bLgIySJay0Uhn-22" edge="1">
          <mxGeometry width="50" height="50" relative="1" as="geometry">
            <mxPoint x="1002" y="91" as="sourcePoint" />
            <mxPoint x="840" y="-85" as="targetPoint" />
          </mxGeometry>
        </mxCell>
        <mxCell id="u46Li2yzT0eoCgccH4o8-158" value="" style="endArrow=classic;html=1;rounded=0;entryX=1;entryY=0.5;entryDx=0;entryDy=0;exitX=0;exitY=0.5;exitDx=0;exitDy=0;" parent="u46Li2yzT0eoCgccH4o8-35" target="u46Li2yzT0eoCgccH4o8-88" edge="1">
          <mxGeometry width="50" height="50" relative="1" as="geometry">
            <mxPoint x="1014" y="171" as="sourcePoint" />
            <mxPoint x="851" y="189" as="targetPoint" />
          </mxGeometry>
        </mxCell>
        <mxCell id="u46Li2yzT0eoCgccH4o8-159" value="" style="endArrow=classic;html=1;rounded=0;entryX=1;entryY=0.5;entryDx=0;entryDy=0;exitX=0;exitY=0.5;exitDx=0;exitDy=0;" parent="u46Li2yzT0eoCgccH4o8-35" source="u46Li2yzT0eoCgccH4o8-90" target="u46Li2yzT0eoCgccH4o8-88" edge="1">
          <mxGeometry width="50" height="50" relative="1" as="geometry">
            <mxPoint x="1013" y="219.08000000000004" as="sourcePoint" />
            <mxPoint x="850" y="237.08000000000004" as="targetPoint" />
          </mxGeometry>
        </mxCell>
        <mxCell id="u46Li2yzT0eoCgccH4o8-155" value="" style="endArrow=classic;html=1;rounded=0;exitX=0;exitY=0.5;exitDx=0;exitDy=0;entryX=1;entryY=0.5;entryDx=0;entryDy=0;" parent="u46Li2yzT0eoCgccH4o8-35" source="u46Li2yzT0eoCgccH4o8-96" target="u46Li2yzT0eoCgccH4o8-88" edge="1">
          <mxGeometry width="50" height="50" relative="1" as="geometry">
            <mxPoint x="1015" y="409.08" as="sourcePoint" />
            <mxPoint x="852" y="236" as="targetPoint" />
          </mxGeometry>
        </mxCell>
        <mxCell id="u46Li2yzT0eoCgccH4o8-156" value="" style="endArrow=classic;html=1;rounded=0;exitX=0;exitY=0.5;exitDx=0;exitDy=0;entryX=1;entryY=0.5;entryDx=0;entryDy=0;" parent="u46Li2yzT0eoCgccH4o8-35" source="u46Li2yzT0eoCgccH4o8-95" target="u46Li2yzT0eoCgccH4o8-89" edge="1">
          <mxGeometry width="50" height="50" relative="1" as="geometry">
            <mxPoint x="1014" y="493" as="sourcePoint" />
            <mxPoint x="848" y="365" as="targetPoint" />
            <Array as="points" />
          </mxGeometry>
        </mxCell>
        <mxCell id="u46Li2yzT0eoCgccH4o8-218" value="" style="endArrow=classic;html=1;rounded=0;exitX=0;exitY=0.5;exitDx=0;exitDy=0;entryX=1;entryY=0.25;entryDx=0;entryDy=0;" parent="u46Li2yzT0eoCgccH4o8-35" source="u46Li2yzT0eoCgccH4o8-96" target="u46Li2yzT0eoCgccH4o8-86" edge="1">
          <mxGeometry width="50" height="50" relative="1" as="geometry">
            <mxPoint x="1017" y="475.15999999999985" as="sourcePoint" />
            <mxPoint x="374" y="459" as="targetPoint" />
            <Array as="points">
              <mxPoint x="492" y="461" />
            </Array>
          </mxGeometry>
        </mxCell>
        <mxCell id="u46Li2yzT0eoCgccH4o8-219" value="" style="endArrow=classic;html=1;rounded=0;exitX=0;exitY=0.5;exitDx=0;exitDy=0;entryX=1;entryY=0.75;entryDx=0;entryDy=0;" parent="u46Li2yzT0eoCgccH4o8-35" source="u46Li2yzT0eoCgccH4o8-96" target="u46Li2yzT0eoCgccH4o8-82" edge="1">
          <mxGeometry width="50" height="50" relative="1" as="geometry">
            <mxPoint x="1014" y="461" as="sourcePoint" />
            <mxPoint x="406" y="352" as="targetPoint" />
            <Array as="points">
              <mxPoint x="405" y="409" />
              <mxPoint x="405" y="329" />
            </Array>
          </mxGeometry>
        </mxCell>
        <mxCell id="u46Li2yzT0eoCgccH4o8-220" value="" style="endArrow=classic;html=1;rounded=0;exitX=0;exitY=0.5;exitDx=0;exitDy=0;entryX=0.992;entryY=0.871;entryDx=0;entryDy=0;entryPerimeter=0;" parent="u46Li2yzT0eoCgccH4o8-35" source="u46Li2yzT0eoCgccH4o8-95" target="rWycjQ3bLgIySJay0Uhn-8" edge="1">
          <mxGeometry width="50" height="50" relative="1" as="geometry">
            <mxPoint x="681" y="528" as="sourcePoint" />
            <mxPoint x="414" y="246" as="targetPoint" />
            <Array as="points">
              <mxPoint x="802" y="292" />
              <mxPoint x="403" y="288" />
              <mxPoint x="403" y="175" />
            </Array>
          </mxGeometry>
        </mxCell>
        <mxCell id="rWycjQ3bLgIySJay0Uhn-6" value="&lt;font style=&quot;font-size: 24px;&quot;&gt;Wired/cellular network sensing systems (mothership nodes)&lt;/font&gt;" style="text;html=1;strokeColor=none;fillColor=none;align=left;verticalAlign=middle;whiteSpace=wrap;rounded=0;" parent="u46Li2yzT0eoCgccH4o8-35" vertex="1">
          <mxGeometry x="25.998898305084747" y="70.00155079718206" width="343.14406779661016" height="34.11247450871338" as="geometry" />
        </mxCell>
        <mxCell id="u46Li2yzT0eoCgccH4o8-78" value="" style="rounded=0;whiteSpace=wrap;html=1;fillColor=none;" parent="u46Li2yzT0eoCgccH4o8-35" vertex="1">
          <mxGeometry x="20" y="55" width="350" height="134" as="geometry" />
        </mxCell>
        <mxCell id="rWycjQ3bLgIySJay0Uhn-8" value="&lt;font style=&quot;&quot;&gt;&lt;font style=&quot;font-size: 18px;&quot;&gt;Embedded LoRaWAN gateways&lt;/font&gt;&lt;br&gt;&lt;font style=&quot;font-size: 14px;&quot;&gt;(Embedded within mothership monitors)&lt;/font&gt;&lt;br&gt;&lt;/font&gt;" style="text;html=1;strokeColor=default;fillColor=none;align=left;verticalAlign=middle;whiteSpace=wrap;rounded=0;" parent="u46Li2yzT0eoCgccH4o8-35" vertex="1">
          <mxGeometry x="29.004576271186437" y="123.99632183908045" width="271.2224576271187" height="58.54597701149426" as="geometry" />
        </mxCell>
        <mxCell id="u46Li2yzT0eoCgccH4o8-81" value="&lt;font style=&quot;font-size: 24px;&quot;&gt;Wired/cellular network sensing systems (mothership nodes)&lt;/font&gt;" style="text;html=1;strokeColor=none;fillColor=none;align=left;verticalAlign=middle;whiteSpace=wrap;rounded=0;" parent="u46Li2yzT0eoCgccH4o8-35" vertex="1">
          <mxGeometry x="24.998898305084747" y="231.00155079718206" width="343.14406779661016" height="34.11247450871338" as="geometry" />
        </mxCell>
        <mxCell id="u46Li2yzT0eoCgccH4o8-83" value="" style="rounded=0;whiteSpace=wrap;html=1;fillColor=none;" parent="u46Li2yzT0eoCgccH4o8-35" vertex="1">
          <mxGeometry x="19" y="216" width="350" height="134" as="geometry" />
        </mxCell>
        <mxCell id="u46Li2yzT0eoCgccH4o8-82" value="&lt;font style=&quot;&quot;&gt;&lt;font style=&quot;font-size: 18px;&quot;&gt;Embedded LoRaWAN gateways&lt;/font&gt;&lt;br&gt;&lt;font style=&quot;font-size: 14px;&quot;&gt;(Embedded within mothership monitors)&lt;/font&gt;&lt;br&gt;&lt;/font&gt;" style="text;html=1;strokeColor=default;fillColor=none;align=left;verticalAlign=middle;whiteSpace=wrap;rounded=0;" parent="u46Li2yzT0eoCgccH4o8-35" vertex="1">
          <mxGeometry x="28.004576271186437" y="284.99632183908045" width="271.2224576271187" height="58.54597701149426" as="geometry" />
        </mxCell>
        <mxCell id="u46Li2yzT0eoCgccH4o8-11" value="&lt;font style=&quot;font-size: 18px;&quot;&gt;Currently running on AWS (Prof. Simmons)&lt;/font&gt;" style="swimlane;whiteSpace=wrap;html=1;align=left;" parent="1" vertex="1">
          <mxGeometry x="668" y="627" width="769" height="124" as="geometry" />
        </mxCell>
        <mxCell id="u46Li2yzT0eoCgccH4o8-8" value="&lt;div style=&quot;&quot;&gt;&lt;span style=&quot;font-size: 14px;&quot;&gt;&lt;b&gt;MQTT Broker for LoRaWAN&lt;/b&gt;&lt;span style=&quot;white-space: pre;&quot;&gt;&#x9;&lt;/span&gt;&lt;/span&gt;&lt;/div&gt;&lt;span style=&quot;color: rgb(0, 0, 0); font-family: Helvetica; font-style: normal; font-variant-ligatures: normal; font-variant-caps: normal; font-weight: 400; letter-spacing: normal; orphans: 2; text-indent: 0px; text-transform: none; widows: 2; word-spacing: 0px; -webkit-text-stroke-width: 0px; background-color: rgb(251, 251, 251); text-decoration-thickness: initial; text-decoration-style: initial; text-decoration-color: initial; float: none; display: inline !important;&quot;&gt;&lt;font style=&quot;font-size: 14px;&quot;&gt;&lt;span style=&quot;white-space: pre;&quot;&gt;&#x9;&lt;/span&gt;mqtt.lora.trecis.cloud&lt;/font&gt;&lt;/span&gt;" style="rounded=0;whiteSpace=wrap;html=1;fillColor=none;align=left;" parent="u46Li2yzT0eoCgccH4o8-11" vertex="1">
          <mxGeometry x="467" y="42" width="281" height="69" as="geometry" />
        </mxCell>
        <mxCell id="u46Li2yzT0eoCgccH4o8-166" value="" style="edgeStyle=orthogonalEdgeStyle;rounded=0;orthogonalLoop=1;jettySize=auto;html=1;" parent="u46Li2yzT0eoCgccH4o8-11" source="u46Li2yzT0eoCgccH4o8-4" target="u46Li2yzT0eoCgccH4o8-8" edge="1">
          <mxGeometry relative="1" as="geometry" />
        </mxCell>
        <mxCell id="u46Li2yzT0eoCgccH4o8-4" value="&lt;font style=&quot;font-size: 18px;&quot;&gt;LoRaWAN Network Server&lt;br&gt;&lt;span style=&quot;&quot;&gt;&lt;span style=&quot;white-space: pre;&quot;&gt;&amp;nbsp;&amp;nbsp;&amp;nbsp;&amp;nbsp;running chirpstack&lt;/span&gt;&lt;/span&gt;&lt;br&gt;&lt;/font&gt;" style="text;html=1;strokeColor=default;fillColor=none;align=left;verticalAlign=middle;whiteSpace=wrap;rounded=0;" parent="u46Li2yzT0eoCgccH4o8-11" vertex="1">
          <mxGeometry x="51" y="52.59" width="329" height="47.83" as="geometry" />
        </mxCell>
        <mxCell id="u46Li2yzT0eoCgccH4o8-165" style="edgeStyle=orthogonalEdgeStyle;rounded=0;orthogonalLoop=1;jettySize=auto;html=1;exitX=1;exitY=0.5;exitDx=0;exitDy=0;entryX=0;entryY=0.25;entryDx=0;entryDy=0;" parent="1" source="u46Li2yzT0eoCgccH4o8-21" target="u46Li2yzT0eoCgccH4o8-26" edge="1">
          <mxGeometry relative="1" as="geometry">
            <Array as="points">
              <mxPoint x="517" y="735" />
              <mxPoint x="517" y="847" />
              <mxPoint x="225" y="847" />
              <mxPoint x="225" y="931" />
            </Array>
          </mxGeometry>
        </mxCell>
        <mxCell id="u46Li2yzT0eoCgccH4o8-21" value="&lt;div style=&quot;&quot;&gt;&lt;span style=&quot;font-size: 14px;&quot;&gt;&lt;b&gt;MQTT Broker for Wired/Cellular Systems&lt;/b&gt;&lt;/span&gt;&lt;/div&gt;&lt;div style=&quot;&quot;&gt;&lt;span style=&quot;white-space: pre;&quot;&gt;&#x9;&lt;/span&gt;mqtt.circ.utdallas.edu/&lt;span style=&quot;font-size: 14px;&quot;&gt;&lt;b&gt;&lt;br&gt;&lt;/b&gt;&lt;/span&gt;&lt;/div&gt;" style="rounded=0;whiteSpace=wrap;html=1;fillColor=none;align=left;container=1;glass=0;" parent="1" vertex="1">
          <mxGeometry x="201" y="689" width="296" height="91" as="geometry" />
        </mxCell>
        <mxCell id="u46Li2yzT0eoCgccH4o8-22" value="&lt;font style=&quot;font-size: 18px;&quot;&gt;MDASH: mdash.circ.utdallas.edu&lt;/font&gt;" style="swimlane;whiteSpace=wrap;html=1;align=left;" parent="1" vertex="1">
          <mxGeometry x="257" y="863" width="788" height="149" as="geometry" />
        </mxCell>
        <mxCell id="u46Li2yzT0eoCgccH4o8-163" value="" style="edgeStyle=orthogonalEdgeStyle;rounded=0;orthogonalLoop=1;jettySize=auto;html=1;" parent="u46Li2yzT0eoCgccH4o8-22" source="u46Li2yzT0eoCgccH4o8-26" target="u46Li2yzT0eoCgccH4o8-27" edge="1">
          <mxGeometry relative="1" as="geometry" />
        </mxCell>
        <mxCell id="u46Li2yzT0eoCgccH4o8-26" value="&lt;div style=&quot;&quot;&gt;&lt;span style=&quot;font-size: 14px;&quot;&gt;&lt;b&gt;Node Red:&lt;/b&gt;&lt;/span&gt;&lt;/div&gt;&lt;span style=&quot;color: rgb(0, 0, 0); font-family: Helvetica; font-style: normal; font-variant-ligatures: normal; font-variant-caps: normal; font-weight: 400; letter-spacing: normal; orphans: 2; text-indent: 0px; text-transform: none; widows: 2; word-spacing: 0px; -webkit-text-stroke-width: 0px; background-color: rgb(251, 251, 251); text-decoration-thickness: initial; text-decoration-style: initial; text-decoration-color: initial; float: none; display: inline !important;&quot;&gt;&lt;font style=&quot;font-size: 14px;&quot;&gt;&lt;span style=&quot;&quot;&gt;&lt;span style=&quot;white-space: pre;&quot;&gt;&amp;nbsp;&amp;nbsp;&amp;nbsp;&amp;nbsp;&lt;/span&gt;&lt;/span&gt;&lt;/font&gt;&lt;/span&gt;mdash.circ.utdallas.edu:1880" style="rounded=0;whiteSpace=wrap;html=1;fillColor=none;align=left;" parent="u46Li2yzT0eoCgccH4o8-22" vertex="1">
          <mxGeometry x="22" y="51" width="225" height="69" as="geometry" />
        </mxCell>
        <mxCell id="u46Li2yzT0eoCgccH4o8-164" value="" style="edgeStyle=orthogonalEdgeStyle;rounded=0;orthogonalLoop=1;jettySize=auto;html=1;" parent="u46Li2yzT0eoCgccH4o8-22" source="u46Li2yzT0eoCgccH4o8-27" target="u46Li2yzT0eoCgccH4o8-28" edge="1">
          <mxGeometry relative="1" as="geometry" />
        </mxCell>
        <mxCell id="u46Li2yzT0eoCgccH4o8-27" value="&lt;div style=&quot;&quot;&gt;&lt;span style=&quot;font-size: 14px;&quot;&gt;&lt;b&gt;InFlux DB:&lt;/b&gt;&lt;/span&gt;&lt;/div&gt;&lt;span style=&quot;color: rgb(0, 0, 0); font-family: Helvetica; font-style: normal; font-variant-ligatures: normal; font-variant-caps: normal; font-weight: 400; letter-spacing: normal; orphans: 2; text-indent: 0px; text-transform: none; widows: 2; word-spacing: 0px; -webkit-text-stroke-width: 0px; background-color: rgb(251, 251, 251); text-decoration-thickness: initial; text-decoration-style: initial; text-decoration-color: initial; float: none; display: inline !important;&quot;&gt;&lt;font style=&quot;font-size: 14px;&quot;&gt;&lt;span style=&quot;&quot;&gt;&lt;span style=&quot;&quot;&gt;&amp;nbsp;&amp;nbsp;&amp;nbsp;&amp;nbsp;&lt;/span&gt;&lt;/span&gt;&lt;/font&gt;&lt;/span&gt;mdash.circ.utdallas.edu:8086" style="rounded=0;whiteSpace=wrap;html=1;fillColor=none;align=left;" parent="u46Li2yzT0eoCgccH4o8-22" vertex="1">
          <mxGeometry x="280" y="51" width="225" height="69" as="geometry" />
        </mxCell>
        <mxCell id="u46Li2yzT0eoCgccH4o8-28" value="&lt;div style=&quot;&quot;&gt;&lt;span style=&quot;font-size: 14px;&quot;&gt;&lt;b&gt;Grafana:&lt;/b&gt;&lt;/span&gt;&lt;/div&gt;&lt;span style=&quot;color: rgb(0, 0, 0); font-family: Helvetica; font-style: normal; font-variant-ligatures: normal; font-variant-caps: normal; font-weight: 400; letter-spacing: normal; orphans: 2; text-indent: 0px; text-transform: none; widows: 2; word-spacing: 0px; -webkit-text-stroke-width: 0px; background-color: rgb(251, 251, 251); text-decoration-thickness: initial; text-decoration-style: initial; text-decoration-color: initial; float: none; display: inline !important;&quot;&gt;&lt;font style=&quot;font-size: 14px;&quot;&gt;&lt;span style=&quot;&quot;&gt;&lt;span style=&quot;white-space: pre;&quot;&gt;&amp;nbsp;&amp;nbsp;&amp;nbsp;&amp;nbsp;&lt;/span&gt;&lt;/span&gt;&lt;/font&gt;&lt;/span&gt;mdash.circ.utdallas.edu:3000" style="rounded=0;whiteSpace=wrap;html=1;fillColor=none;align=left;" parent="u46Li2yzT0eoCgccH4o8-22" vertex="1">
          <mxGeometry x="538" y="51" width="225" height="69" as="geometry" />
        </mxCell>
        <mxCell id="u46Li2yzT0eoCgccH4o8-30" value="&lt;font style=&quot;font-size: 18px;&quot;&gt;IMD: mintsdata.circ.utdallas.edu&lt;/font&gt;" style="swimlane;whiteSpace=wrap;html=1;align=left;" parent="1" vertex="1">
          <mxGeometry x="370" y="1073" width="914" height="142" as="geometry" />
        </mxCell>
        <mxCell id="u46Li2yzT0eoCgccH4o8-172" value="" style="edgeStyle=orthogonalEdgeStyle;rounded=0;orthogonalLoop=1;jettySize=auto;html=1;" parent="u46Li2yzT0eoCgccH4o8-30" source="u46Li2yzT0eoCgccH4o8-31" target="u46Li2yzT0eoCgccH4o8-32" edge="1">
          <mxGeometry relative="1" as="geometry" />
        </mxCell>
        <mxCell id="u46Li2yzT0eoCgccH4o8-191" value="" style="edgeStyle=orthogonalEdgeStyle;rounded=0;orthogonalLoop=1;jettySize=auto;html=1;" parent="u46Li2yzT0eoCgccH4o8-30" source="u46Li2yzT0eoCgccH4o8-31" target="u46Li2yzT0eoCgccH4o8-32" edge="1">
          <mxGeometry relative="1" as="geometry" />
        </mxCell>
        <mxCell id="u46Li2yzT0eoCgccH4o8-31" value="&lt;div style=&quot;&quot;&gt;&lt;span style=&quot;font-size: 14px;&quot;&gt;&lt;b&gt;POSTGREYSQL DB:&lt;/b&gt;&lt;/span&gt;&lt;/div&gt;&lt;span style=&quot;color: rgb(0, 0, 0); font-family: Helvetica; font-style: normal; font-variant-ligatures: normal; font-variant-caps: normal; font-weight: 400; letter-spacing: normal; orphans: 2; text-indent: 0px; text-transform: none; widows: 2; word-spacing: 0px; -webkit-text-stroke-width: 0px; background-color: rgb(251, 251, 251); text-decoration-thickness: initial; text-decoration-style: initial; text-decoration-color: initial; float: none; display: inline !important;&quot;&gt;&lt;font style=&quot;font-size: 14px;&quot;&gt;&lt;span style=&quot;&quot;&gt;&lt;span style=&quot;white-space: pre;&quot;&gt;&amp;nbsp;&amp;nbsp;&amp;nbsp;&lt;/span&gt;&lt;/span&gt;&lt;/font&gt;&lt;/span&gt;" style="rounded=0;whiteSpace=wrap;html=1;fillColor=none;align=left;" parent="u46Li2yzT0eoCgccH4o8-30" vertex="1">
          <mxGeometry x="22" y="51" width="225" height="69" as="geometry" />
        </mxCell>
        <mxCell id="u46Li2yzT0eoCgccH4o8-32" value="&lt;span style=&quot;font-size: 14px;&quot;&gt;&lt;span&gt;Node.js&lt;br&gt;&lt;span style=&quot;white-space: pre;&quot;&gt;&#x9;&lt;/span&gt;running sharedairdfw.com&lt;/span&gt;&lt;/span&gt;&lt;div style=&quot;&quot;&gt;&lt;/div&gt;" style="rounded=0;whiteSpace=wrap;html=1;fillColor=none;align=left;fontStyle=1" parent="u46Li2yzT0eoCgccH4o8-30" vertex="1">
          <mxGeometry x="280" y="51" width="225" height="69" as="geometry" />
        </mxCell>
        <mxCell id="u46Li2yzT0eoCgccH4o8-196" value="MFS mount:&amp;nbsp;&lt;a style=&quot;font-family: &amp;quot;Helvetica Neue&amp;quot;; font-size: 13px; font-weight: 400; text-align: start; background-color: initial;&quot; href=&quot;http://mfsmaster.circ.utdallas.edu/&quot;&gt;mfsmaster.circ.utdallas.edu&lt;/a&gt;" style="swimlane;whiteSpace=wrap;html=1;" parent="u46Li2yzT0eoCgccH4o8-30" vertex="1">
          <mxGeometry x="541" y="48" width="351" height="75" as="geometry" />
        </mxCell>
        <mxCell id="u46Li2yzT0eoCgccH4o8-214" value="" style="endArrow=classic;html=1;rounded=0;entryX=0.5;entryY=1;entryDx=0;entryDy=0;" parent="u46Li2yzT0eoCgccH4o8-196" target="u46Li2yzT0eoCgccH4o8-196" edge="1">
          <mxGeometry width="50" height="50" relative="1" as="geometry">
            <mxPoint x="-830" y="57" as="sourcePoint" />
            <mxPoint x="148" y="73" as="targetPoint" />
            <Array as="points">
              <mxPoint x="-830" y="111" />
              <mxPoint x="176" y="111" />
            </Array>
          </mxGeometry>
        </mxCell>
        <mxCell id="u46Li2yzT0eoCgccH4o8-217" value="CSV Data from both mqtt and rsyc pipelines&amp;nbsp;" style="text;html=1;align=center;verticalAlign=middle;resizable=0;points=[];autosize=1;strokeColor=none;fillColor=none;" parent="u46Li2yzT0eoCgccH4o8-196" vertex="1">
          <mxGeometry x="32" y="35" width="256" height="27" as="geometry" />
        </mxCell>
        <mxCell id="u46Li2yzT0eoCgccH4o8-99" value="" style="endArrow=classic;html=1;rounded=0;exitX=0;exitY=0.5;exitDx=0;exitDy=0;entryX=0;entryY=0.5;entryDx=0;entryDy=0;" parent="1" source="u46Li2yzT0eoCgccH4o8-78" target="u46Li2yzT0eoCgccH4o8-21" edge="1">
          <mxGeometry width="50" height="50" relative="1" as="geometry">
            <mxPoint x="797" y="572" as="sourcePoint" />
            <mxPoint x="64" y="735" as="targetPoint" />
            <Array as="points">
              <mxPoint x="113" y="194" />
              <mxPoint x="113" y="735" />
            </Array>
          </mxGeometry>
        </mxCell>
        <mxCell id="u46Li2yzT0eoCgccH4o8-102" value="" style="endArrow=classic;html=1;rounded=0;exitX=0;exitY=0.5;exitDx=0;exitDy=0;" parent="1" source="u46Li2yzT0eoCgccH4o8-83" edge="1">
          <mxGeometry width="50" height="50" relative="1" as="geometry">
            <mxPoint x="797" y="608" as="sourcePoint" />
            <mxPoint x="113" y="355" as="targetPoint" />
          </mxGeometry>
        </mxCell>
        <mxCell id="u46Li2yzT0eoCgccH4o8-116" value="" style="endArrow=classic;html=1;rounded=0;exitX=0;exitY=0.5;exitDx=0;exitDy=0;" parent="1" source="u46Li2yzT0eoCgccH4o8-78" edge="1">
          <mxGeometry width="50" height="50" relative="1" as="geometry">
            <mxPoint x="451" y="493" as="sourcePoint" />
            <mxPoint x="112" y="194" as="targetPoint" />
          </mxGeometry>
        </mxCell>
        <mxCell id="u46Li2yzT0eoCgccH4o8-119" value="" style="endArrow=classic;html=1;rounded=0;entryX=0;entryY=0.5;entryDx=0;entryDy=0;" parent="1" target="u46Li2yzT0eoCgccH4o8-4" edge="1">
          <mxGeometry width="50" height="50" relative="1" as="geometry">
            <mxPoint x="576" y="704" as="sourcePoint" />
            <mxPoint x="717" y="727" as="targetPoint" />
          </mxGeometry>
        </mxCell>
        <mxCell id="u46Li2yzT0eoCgccH4o8-161" style="edgeStyle=orthogonalEdgeStyle;rounded=0;orthogonalLoop=1;jettySize=auto;html=1;entryX=0;entryY=0.5;entryDx=0;entryDy=0;" parent="1" source="u46Li2yzT0eoCgccH4o8-8" target="u46Li2yzT0eoCgccH4o8-26" edge="1">
          <mxGeometry relative="1" as="geometry">
            <Array as="points">
              <mxPoint x="1279" y="800" />
              <mxPoint x="159" y="800" />
              <mxPoint x="159" y="949" />
            </Array>
          </mxGeometry>
        </mxCell>
        <mxCell id="u46Li2yzT0eoCgccH4o8-170" value="" style="endArrow=classic;html=1;rounded=0;entryX=0;entryY=0.5;entryDx=0;entryDy=0;" parent="1" target="u46Li2yzT0eoCgccH4o8-31" edge="1">
          <mxGeometry width="50" height="50" relative="1" as="geometry">
            <mxPoint x="159" y="949" as="sourcePoint" />
            <mxPoint x="318" y="1232" as="targetPoint" />
            <Array as="points">
              <mxPoint x="159" y="1159" />
            </Array>
          </mxGeometry>
        </mxCell>
        <mxCell id="u46Li2yzT0eoCgccH4o8-174" value="" style="endArrow=classic;html=1;rounded=0;entryX=0;entryY=0.25;entryDx=0;entryDy=0;" parent="1" target="u46Li2yzT0eoCgccH4o8-31" edge="1">
          <mxGeometry width="50" height="50" relative="1" as="geometry">
            <mxPoint x="225" y="928" as="sourcePoint" />
            <mxPoint x="341" y="1103" as="targetPoint" />
            <Array as="points">
              <mxPoint x="225" y="1141" />
            </Array>
          </mxGeometry>
        </mxCell>
        <mxCell id="u46Li2yzT0eoCgccH4o8-184" value="&lt;font style=&quot;font-size: 18px;&quot;&gt;External data sources&lt;/font&gt;" style="swimlane;whiteSpace=wrap;html=1;align=left;" parent="1" vertex="1">
          <mxGeometry x="144" y="1266" width="1050" height="238" as="geometry" />
        </mxCell>
        <mxCell id="u46Li2yzT0eoCgccH4o8-186" value="&lt;span style=&quot;font-size: 14px;&quot;&gt;&lt;b&gt;NOAAH&lt;/b&gt;&lt;/span&gt;&lt;div style=&quot;&quot;&gt;&lt;/div&gt;" style="rounded=0;whiteSpace=wrap;html=1;fillColor=none;align=left;" parent="u46Li2yzT0eoCgccH4o8-184" vertex="1">
          <mxGeometry x="22" y="46" width="225" height="63" as="geometry" />
        </mxCell>
        <mxCell id="u46Li2yzT0eoCgccH4o8-188" value="&lt;span style=&quot;font-size: 14px;&quot;&gt;&lt;b&gt;ECMWF&lt;/b&gt;&lt;/span&gt;&lt;div style=&quot;&quot;&gt;&lt;/div&gt;" style="rounded=0;whiteSpace=wrap;html=1;fillColor=none;align=left;" parent="u46Li2yzT0eoCgccH4o8-184" vertex="1">
          <mxGeometry x="272" y="46" width="225" height="63" as="geometry" />
        </mxCell>
        <mxCell id="u46Li2yzT0eoCgccH4o8-189" value="&lt;b&gt;GEOS Satalite Data (from AWS)&lt;/b&gt;&lt;div style=&quot;&quot;&gt;&lt;/div&gt;" style="rounded=0;whiteSpace=wrap;html=1;fillColor=none;align=left;" parent="u46Li2yzT0eoCgccH4o8-184" vertex="1">
          <mxGeometry x="528" y="47" width="225" height="63" as="geometry" />
        </mxCell>
        <mxCell id="u46Li2yzT0eoCgccH4o8-197" value="&lt;b&gt;MERRA&lt;/b&gt;&lt;div style=&quot;&quot;&gt;&lt;/div&gt;" style="rounded=0;whiteSpace=wrap;html=1;fillColor=none;align=left;" parent="u46Li2yzT0eoCgccH4o8-184" vertex="1">
          <mxGeometry x="784" y="46" width="225" height="65" as="geometry" />
        </mxCell>
        <mxCell id="u46Li2yzT0eoCgccH4o8-203" value="&lt;b&gt;OPEN AQ&lt;/b&gt;&lt;div style=&quot;&quot;&gt;&lt;/div&gt;" style="rounded=0;whiteSpace=wrap;html=1;fillColor=none;align=left;" parent="u46Li2yzT0eoCgccH4o8-184" vertex="1">
          <mxGeometry x="22" y="142" width="225" height="64" as="geometry" />
        </mxCell>
        <mxCell id="u46Li2yzT0eoCgccH4o8-204" value="&lt;b&gt;EPA&amp;nbsp;&amp;nbsp;&lt;/b&gt;&lt;div style=&quot;&quot;&gt;&lt;/div&gt;" style="rounded=0;whiteSpace=wrap;html=1;fillColor=none;align=left;" parent="u46Li2yzT0eoCgccH4o8-184" vertex="1">
          <mxGeometry x="274" y="143" width="221" height="64" as="geometry" />
        </mxCell>
        <mxCell id="u46Li2yzT0eoCgccH4o8-193" value="" style="edgeStyle=orthogonalEdgeStyle;rounded=0;orthogonalLoop=1;jettySize=auto;html=1;" parent="1" edge="1">
          <mxGeometry relative="1" as="geometry">
            <mxPoint x="618" y="1160" as="sourcePoint" />
            <mxPoint x="651" y="1160" as="targetPoint" />
          </mxGeometry>
        </mxCell>
        <mxCell id="u46Li2yzT0eoCgccH4o8-206" value="" style="endArrow=classic;html=1;rounded=0;exitX=1;exitY=0.5;exitDx=0;exitDy=0;entryX=0.25;entryY=1;entryDx=0;entryDy=0;" parent="1" source="u46Li2yzT0eoCgccH4o8-186" target="u46Li2yzT0eoCgccH4o8-32" edge="1">
          <mxGeometry width="50" height="50" relative="1" as="geometry">
            <mxPoint x="793" y="1326" as="sourcePoint" />
            <mxPoint x="843" y="1276" as="targetPoint" />
            <Array as="points">
              <mxPoint x="401" y="1344" />
              <mxPoint x="399" y="1248" />
              <mxPoint x="706" y="1248" />
            </Array>
          </mxGeometry>
        </mxCell>
        <mxCell id="u46Li2yzT0eoCgccH4o8-208" value="" style="endArrow=classic;html=1;rounded=0;exitX=0;exitY=0.5;exitDx=0;exitDy=0;" parent="1" edge="1">
          <mxGeometry width="50" height="50" relative="1" as="geometry">
            <mxPoint x="157" y="545" as="sourcePoint" />
            <mxPoint x="80" y="545" as="targetPoint" />
          </mxGeometry>
        </mxCell>
        <mxCell id="u46Li2yzT0eoCgccH4o8-209" value="" style="endArrow=classic;html=1;rounded=0;" parent="1" edge="1">
          <mxGeometry width="50" height="50" relative="1" as="geometry">
            <mxPoint x="157" y="385" as="sourcePoint" />
            <mxPoint x="80" y="385" as="targetPoint" />
          </mxGeometry>
        </mxCell>
        <mxCell id="u46Li2yzT0eoCgccH4o8-210" value="" style="endArrow=classic;html=1;rounded=0;exitX=0;exitY=0.5;exitDx=0;exitDy=0;" parent="1" edge="1">
          <mxGeometry width="50" height="50" relative="1" as="geometry">
            <mxPoint x="158" y="224" as="sourcePoint" />
            <mxPoint x="77" y="224" as="targetPoint" />
          </mxGeometry>
        </mxCell>
        <mxCell id="u46Li2yzT0eoCgccH4o8-212" value="" style="endArrow=classic;html=1;rounded=0;" parent="1" edge="1">
          <mxGeometry width="50" height="50" relative="1" as="geometry">
            <mxPoint x="79" y="222" as="sourcePoint" />
            <mxPoint x="81" y="1231" as="targetPoint" />
          </mxGeometry>
        </mxCell>
        <mxCell id="u46Li2yzT0eoCgccH4o8-221" value="" style="endArrow=classic;html=1;rounded=0;fontFamily=Helvetica;fontSize=12;fontColor=default;" parent="1" edge="1">
          <mxGeometry width="50" height="50" relative="1" as="geometry">
            <mxPoint x="159" y="1149" as="sourcePoint" />
            <mxPoint x="159" y="1234" as="targetPoint" />
          </mxGeometry>
        </mxCell>
        <mxCell id="u46Li2yzT0eoCgccH4o8-222" value="" style="endArrow=classic;html=1;rounded=0;fontFamily=Helvetica;fontSize=12;fontColor=default;" parent="1" edge="1">
          <mxGeometry width="50" height="50" relative="1" as="geometry">
            <mxPoint x="225" y="1140" as="sourcePoint" />
            <mxPoint x="225" y="1232" as="targetPoint" />
          </mxGeometry>
        </mxCell>
      </root>
    </mxGraphModel>
  </diagram>
</mxfile>
